Coordinates
version=1
nRows=6
nColumns=34
inDegrees=yes

Units are S.I. units (second, meters, Newtons, ...)
If the header above contains a line with 'inDegrees', this indicates whether rotational values are in degrees (yes) or radians (no).

endheader
time	pelvis_tilt	pelvis_list	pelvis_rotation	pelvis_tx	pelvis_ty	pelvis_tz	hip_flexion_r	hip_adduction_r	hip_rotation_r	knee_angle_r	ankle_angle_r	subtalar_angle_r	mtp_angle_r	hip_flexion_l	hip_adduction_l	hip_rotation_l	knee_angle_l	ankle_angle_l	subtalar_angle_l	mtp_angle_l	lumbar_extension	lumbar_bending	lumbar_rotation	arm_flex_r	arm_add_r	arm_rot_r	elbow_flex_r	pro_sup_r	arm_flex_l	arm_add_l	arm_rot_l	elbow_flex_l	pro_sup_l
      0.00000000	      7.43755335	     -1.16833638	   -174.96629064	      0.04332601	      1.12970717	      0.11853732	      8.78623756	      3.56231918	      3.82869149	     11.51176882	     -4.41506429	    -12.71983361	      0.00000000	     16.12225503	      4.25927865	      0.53196933	     16.42728511	     -1.83355388	     -4.29339474	      0.00000000	     -8.53466496	      3.35325233	     -0.73821927	      2.65066188	    -18.06849031	     20.17258560	     60.13050754	     80.90335731	    -13.85368943	    -14.65074669	      3.79800170	     65.76115591	     86.59013757
      0.00833330	     10.49680375	     -1.57790720	   -175.47589924	      0.04095970	      1.12547182	      0.11845844	     11.47622450	      3.04126531	      4.01904816	     10.22036582	     -5.98338782	     -9.73285584	      0.00000000	     19.27609487	      5.04586003	      0.32621703	     14.99340041	     -4.86758070	     -3.48419839	      0.00000000	     -4.20839833	      2.10166104	     -0.06571996	      0.95002401	    -17.09972870	     19.30238890	     61.80640670	     81.75712678	    -16.19012145	    -14.73835433	      3.42719640	     68.46841466	     86.49790918
      0.01666670	     11.32668460	     -1.90128232	   -175.55003915	      0.03890878	      1.12262666	      0.11895693	     12.17351047	      2.34702429	      2.76706046	     10.36544940	     -6.29499011	     -6.85420172	      0.00000000	     19.94595321	      5.49977496	     -0.02260883	     13.37977709	     -5.88591792	     -1.50306024	      0.00000000	     -2.57495196	      1.53207050	      0.22134040	     -0.39637401	    -17.38780101	     19.57242710	     64.02615117	     82.69667742	    -17.43263261	    -15.27879099	      3.35487234	     70.82156236	     86.61011042
      0.02500000	     12.37449756	     -1.61408904	   -175.67882915	      0.03763443	      1.11887722	      0.11959461	     13.39162761	      2.46406974	      1.51807183	     10.86214560	     -6.22463898	     -5.01481602	      0.00000000	     20.88894733	      5.36408522	     -1.15448337	     11.89015193	     -7.04438772	      0.70876465	      0.00000000	     -1.01345928	      1.66527374	      0.53359013	     -1.53767326	    -17.64694036	     19.66356417	     64.63393968	     84.15399900	    -18.33137107	    -14.98999568	      3.21567986	     72.96541335	     87.06060460
      0.03333330	     13.01891351	     -1.46335407	   -175.73498699	      0.03658405	      1.11544737	      0.11965563	     14.53602800	      2.62869023	      0.86171036	     12.54833695	     -5.57580051	     -4.39553232	      0.00000000	     21.80192324	      5.29094314	     -1.91811560	     11.70975042	     -6.80345045	      1.93536719	      0.00000000	      0.07712557	      1.61491967	      0.46010337	     -2.42919452	    -17.55990504	     20.01922048	     65.35054420	     85.67678718	    -19.16484332	    -14.88716434	      2.93196866	     74.07676611	     87.65685089
      0.04166670	     13.71530814	     -1.04179941	   -175.72572740	      0.03619725	      1.11210888	      0.12012090	     16.01457612	      3.00606812	      0.03949768	     14.64400692	     -4.77074380	     -3.86616844	      0.00000000	     22.65150073	      4.98206130	     -3.16665328	     11.63878254	     -6.57697100	      3.73462212	      0.00000000	      1.31326688	      1.88784244	      0.16323668	     -3.05995787	    -17.79709260	     20.96095765	     65.71585207	     89.99265449	    -19.82401092	    -14.44985557	      2.31221153	     74.86873536	     89.71856736
